<?xml version="1.0" encoding="UTF-8" standalone="no"?>
<!-- Created with Inkscape (http://www.inkscape.org/) -->

<svg
   width="248.1777mm"
   height="247.93327mm"
   viewBox="0 0 248.1777 247.93327"
   version="1.1"
   id="svg1"
   inkscape:version="1.3.2 (091e20e, 2023-11-25, custom)"
   sodipodi:docname="UPS.svg"
   xmlns:inkscape="http://www.inkscape.org/namespaces/inkscape"
   xmlns:sodipodi="http://sodipodi.sourceforge.net/DTD/sodipodi-0.dtd"
   xmlns="http://www.w3.org/2000/svg"
   xmlns:svg="http://www.w3.org/2000/svg">
  <sodipodi:namedview
     id="namedview1"
     pagecolor="#ffffff"
     bordercolor="#666666"
     borderopacity="1.0"
     inkscape:showpageshadow="2"
     inkscape:pageopacity="0.0"
     inkscape:pagecheckerboard="0"
     inkscape:deskcolor="#d1d1d1"
     inkscape:document-units="mm"
     inkscape:zoom="0.72426347"
     inkscape:cx="504.65061"
     inkscape:cy="485.32063"
     inkscape:window-width="1920"
     inkscape:window-height="1009"
     inkscape:window-x="-8"
     inkscape:window-y="-8"
     inkscape:window-maximized="1"
     inkscape:current-layer="layer1" />
  <defs
     id="defs1">
    <clipPath
       clipPathUnits="userSpaceOnUse"
       id="clipPath67">
      <path
         d="M 0,1080 H 2864.333 V 0 H 0 Z"
         transform="translate(-848.71705,-541.03141)"
         id="path67" />
    </clipPath>
    <clipPath
       clipPathUnits="userSpaceOnUse"
       id="clipPath69">
      <path
         d="M 0,1080 H 2864.333 V 0 H 0 Z"
         transform="translate(-634.86052,-860.27892)"
         id="path69" />
    </clipPath>
    <clipPath
       clipPathUnits="userSpaceOnUse"
       id="clipPath71">
      <path
         d="M 0,1080 H 2864.333 V 0 H 0 Z"
         transform="translate(-196.147,-577.76981)"
         id="path71" />
    </clipPath>
    <clipPath
       clipPathUnits="userSpaceOnUse"
       id="clipPath73">
      <path
         d="M 0,1080 H 2864.333 V 0 H 0 Z"
         transform="translate(-505.93942,-885.67172)"
         id="path73" />
    </clipPath>
    <clipPath
       clipPathUnits="userSpaceOnUse"
       id="clipPath75">
      <path
         d="M 0,1080 H 2864.333 V 0 H 0 Z"
         transform="translate(-505.93942,-879.94742)"
         id="path75" />
    </clipPath>
    <clipPath
       clipPathUnits="userSpaceOnUse"
       id="clipPath77">
      <path
         d="M 0,1080 H 2864.333 V 0 H 0 Z"
         transform="translate(-534.42701,-622.35632)"
         id="path77" />
    </clipPath>
    <clipPath
       clipPathUnits="userSpaceOnUse"
       id="clipPath79">
      <path
         d="M 0,1080 H 2864.333 V 0 H 0 Z"
         transform="translate(-593.94761,-410.67961)"
         id="path79" />
    </clipPath>
    <clipPath
       clipPathUnits="userSpaceOnUse"
       id="clipPath81">
      <path
         d="M 0,1080 H 2864.333 V 0 H 0 Z"
         transform="translate(-542.63351,-638.94101)"
         id="path81" />
    </clipPath>
    <clipPath
       clipPathUnits="userSpaceOnUse"
       id="clipPath83">
      <path
         d="M 0,1080 H 2864.333 V 0 H 0 Z"
         transform="translate(-620.41802,-572.75051)"
         id="path83" />
    </clipPath>
    <clipPath
       clipPathUnits="userSpaceOnUse"
       id="clipPath85">
      <path
         d="M 0,1080 H 2864.333 V 0 H 0 Z"
         transform="translate(-276.18291,-380.36391)"
         id="path85" />
    </clipPath>
    <clipPath
       clipPathUnits="userSpaceOnUse"
       id="clipPath87">
      <path
         d="M 0,1080 H 2864.333 V 0 H 0 Z"
         transform="translate(-210.63171,-724.30962)"
         id="path87" />
    </clipPath>
    <clipPath
       clipPathUnits="userSpaceOnUse"
       id="clipPath89">
      <path
         d="M 0,1080 H 2864.333 V 0 H 0 Z"
         transform="translate(-388.01141,-212.19421)"
         id="path89" />
    </clipPath>
    <clipPath
       clipPathUnits="userSpaceOnUse"
       id="clipPath91">
      <path
         d="M 0,1080 H 2864.333 V 0 H 0 Z"
         transform="translate(-575.38342,-830.64092)"
         id="path91" />
    </clipPath>
    <clipPath
       clipPathUnits="userSpaceOnUse"
       id="clipPath93">
      <path
         d="M 0,1080 H 2864.333 V 0 H 0 Z"
         transform="translate(-290.362,-728.71882)"
         id="path93" />
    </clipPath>
    <clipPath
       clipPathUnits="userSpaceOnUse"
       id="clipPath95">
      <path
         d="M 0,1080 H 2864.333 V 0 H 0 Z"
         transform="translate(-374.94171,-540.46561)"
         id="path95" />
    </clipPath>
    <clipPath
       clipPathUnits="userSpaceOnUse"
       id="clipPath97">
      <path
         d="M 0,1080 H 2864.333 V 0 H 0 Z"
         id="path97" />
    </clipPath>
    <clipPath
       clipPathUnits="userSpaceOnUse"
       id="clipPath99">
      <path
         d="M 0,1080 H 2864.333 V 0 H 0 Z"
         transform="translate(-505.25651,-889.71152)"
         id="path99" />
    </clipPath>
  </defs>
  <g
     inkscape:label="Capa 1"
     inkscape:groupmode="layer"
     id="layer1"
     transform="translate(6.3499988,37.835415)">
    <path
       id="path66"
       d="m 0,0 c 0,-190.948 -154.785,-345.712 -345.701,-345.712 -190.884,0 -345.69,154.764 -345.69,345.712 0,190.883 154.806,345.637 345.69,345.637 C -154.785,345.637 0,190.883 0,0"
       style="fill:#ccd7e4;fill-opacity:1;fill-rule:nonzero;stroke:none"
       transform="matrix(0.35277776,0,0,-0.35277776,238.78946,85.767333)"
       clip-path="url(#clipPath67)" />
    <path
       id="path68"
       d="m 0,0 c -107.413,42.001 -191.407,20.5 -191.407,20.5 0,0 -4.922,-12.882 -1.203,-24.198 3.782,-11.273 -11.199,-7.501 -3.719,-18.773 7.501,-11.316 -14.959,-15.057 -33.702,-41.395 -18.72,-26.383 0,0 -11.219,-18.817 -11.241,-18.849 -3.74,-15.077 -22.461,-30.111 -18.732,-15.088 -22.429,-15.088 -41.16,-22.642 -18.732,-7.523 -36.664,-26.104 -36.664,-26.104 l -80.935,-288.228 -15.983,-30.633 c 0,0 87.872,-185.557 306.598,-184.556 0,0 66.412,-3.932 145.503,32.178 L 0.937,-47.842 Z"
       style="fill:#feecb3;fill-opacity:1;fill-rule:nonzero;stroke:none"
       transform="matrix(0.35277776,0,0,-0.35277776,163.34563,-26.856089)"
       clip-path="url(#clipPath69)" />
    <path
       id="path70"
       d="m 0,0 c 0,0 -5.679,12.211 8.993,6.52 0,0 7.021,2.962 1.044,6.777 0,0 -16.281,8.662 -1.631,18.422 0,0 9.228,4.359 12.456,7.587 l 1.62,13.052 3.281,1.065 0.533,17.378 c 0,0 -11.922,7.043 2.195,11.903 0,0 6.489,10.878 38.486,12.455 0,0 7.608,8.13 13.021,6.552 0,0 5.977,8.141 9.226,8.674 0,0 5.435,-2.739 9.782,-9.206 0,0 10.271,-3.271 11.348,-8.662 0,0 13.606,-2.175 19.551,-13.053 0,0 8.13,-2.152 8.684,0.576 0,0 0.544,7.021 15.205,-9.239 l 2.706,-10.836 17.879,-1.619 1.588,-4.923 34.277,-0.521 4.24,8.662 c 0,0 0.544,7.575 26.063,-16.75 l 9.216,-0.618 2.185,-6.552 14.607,-2.11 c 0,0 4.316,-3.815 -15.716,-2.717 l 1.109,-8.663 c 0,0 10.857,-4.348 15.726,-11.475 l 1.055,-21.587 c 0,0 -7.597,1.566 -11.902,-10.9 l -0.522,-11.358 c 0,0 -32.029,-52.637 -82.437,-62.908 0,0 -21.151,-6.51 -43.441,-20.116 0,0 -17.932,-13.553 -18.933,-16.249 l -1.663,-17.378 c 0,0 -3.783,-10.304 -9.238,-11.337 0,0 1.695,-15.216 -3.196,-15.717 0,0 10.814,-15.758 -8.737,-17.378 0,0 -5.967,-3.249 -8.098,-11.379 0,0 -10.282,-14.075 -25.508,6.489 0,0 0,14.63 -12.487,13.041 0,0 -9.206,-2.737 -18.924,9.227 0,0 -9.269,4.348 -11.422,-9.227 0,0 -13.02,-4.954 -3.228,10.294 0,0 -1.694,7.628 -5.434,9.738 0,0 -4.358,9.238 7.607,3.271 l 6.468,2.142 1.63,12.488 c 0,0 -8.673,12.465 0,13.573 0,0 5.402,0.544 5.967,11.934 l 6.521,1.065 1.086,11.423 2.664,2.675 -0.522,11.421 5.956,0.533 0.586,9.163 -2.738,1.673 -2.152,5.391 -0.534,10.869 2.153,3.825 v 3.772 l -3.804,-1.065 -3.324,-23.282 -5.083,14.256 -1.875,-7.244 v -3.282 l -2.142,-2.153 -0.628,-4.336 -5.381,-2.696 v -3.762 H 4.059 c 0,0 -11.955,8.034 -14.618,12.947 0,0 -14.63,-1.087 -7.097,13.02 l 7.097,2.185 c 0,0 3.793,13.009 -4.326,16.301 0,0 -4.369,11.913 1.044,9.717 l 2.205,11.945 -4.368,4.901 -0.554,14.651 c 0,0 14.682,1.598 16.558,6.745"
       style="fill:#6688ad;fill-opacity:1;fill-rule:nonzero;stroke:none"
       transform="matrix(0.35277776,0,0,-0.35277776,8.577259,72.806843)"
       clip-path="url(#clipPath71)" />
    <path
       id="path72"
       d="M 0,0 C 190.873,0 345.658,-154.774 345.658,-345.638 345.658,-536.564 190.873,-691.349 0,-691.349"
       style="fill:#003976;fill-opacity:1;fill-rule:nonzero;stroke:none"
       transform="matrix(0.35277776,0,0,-0.35277776,117.86513,-35.814105)"
       clip-path="url(#clipPath73)" />
    <path
       id="path74"
       d="m 0,0 c 45.89,0 90.396,-8.994 132.313,-26.713 40.479,-17.133 76.823,-41.618 108.063,-72.88 31.208,-31.197 55.726,-67.541 72.838,-108.031 17.73,-41.906 26.722,-86.412 26.722,-132.303 0,-45.901 -8.992,-90.428 -26.722,-132.335 -17.112,-40.478 -41.63,-76.832 -72.838,-108.052 -31.24,-31.241 -67.584,-55.746 -108.063,-72.869 C 90.396,-670.902 45.89,-679.905 0,-679.905 v -11.444 c 47.446,0 93.455,9.281 136.767,27.628 41.831,17.687 79.444,43.046 111.696,75.31 32.264,32.284 57.591,69.843 75.299,111.685 18.337,43.324 27.628,89.375 27.628,136.799 0,47.416 -9.291,93.434 -27.628,136.757 -17.708,41.842 -43.035,79.433 -75.299,111.686 -32.252,32.285 -69.865,57.601 -111.696,75.309 C 93.455,2.173 47.446,11.454 0,11.454 Z"
       style="fill:#003976;fill-opacity:1;fill-rule:nonzero;stroke:none"
       transform="matrix(0.35277776,0,0,-0.35277776,117.86513,-33.794699)"
       clip-path="url(#clipPath75)" />
    <path
       id="path76"
       d="m 0,0 1.556,17.186 1.832,22.887 c 0,0 12.306,24.602 28.087,40.478 l 6.489,-14.427 c 0,0 -16.537,-28.107 24.847,-14.895 l 33.062,16.568 c 0,0 49.61,-49.631 62.801,-4.965 l 16.621,1.662 c 0,0 13.223,26.445 28.087,3.303 v -9.931 c 0,0 1.652,-3.324 14.917,-4.964 0,0 13.202,-33.096 -11.625,-64.484 l 1.684,-24.827 21.469,-26.445 1.674,-24.762 c 0,0 3.281,-5.019 9.909,9.865 0,0 14.874,52.934 52.944,24.87 l -1.683,-14.927 c 0,0 -11.561,19.861 -26.414,8.256 0,0 -11.635,-11.581 -18.252,-26.455 0,0 18.252,-11.55 0,-29.802 l 5.018,-6.553 c 0,0 13.234,14.906 8.205,34.746 0,0 -8.205,24.762 14.927,11.571 0,0 13.234,-13.276 -6.595,-59.625 0,0 -11.592,-14.79 -13.276,-19.755 -1.662,-5.029 -3.261,-19.871 -21.502,-1.715 0,0 4.976,-34.703 -11.561,-39.658 v -38.049 c 0,0 1.663,-39.722 -64.547,-39.722 v 13.297 l 38.113,34.747 c 0,0 -23.186,-23.185 -31.475,3.292 0,0 -6.638,37.996 1.715,41.331 v 21.448 c 0,0 -33.105,14.885 -41.384,31.433 0,0 1.641,-16.548 16.569,-24.784 0,0 19.818,-14.864 9.887,-24.805 0,0 -16.536,-1.641 -19.829,-9.91 0,0 -39.689,-3.323 -44.665,3.283 0,0 4.976,23.163 26.435,29.812 0,0 -47.926,-23.185 -61.16,8.205 0,0 8.258,-23.068 -6.595,-23.068 0,0 -26.445,3.238 -4.965,28.022 0,0 14.906,14.907 -1.652,18.22 l -24.847,-18.22 c 0,0 -14.821,-8.194 -9.899,14.907 0,0 -13.223,28.14 -8.258,41.352 0,0 -2.13,61.053 3.336,86.007"
       style="fill:#fcc000;fill-opacity:1;fill-rule:nonzero;stroke:none"
       transform="matrix(0.35277776,0,0,-0.35277776,127.91492,57.077715)"
       clip-path="url(#clipPath77)" />
    <path
       id="path78"
       d="m 0,0 c 0,0 -8.29,38.005 -24.826,6.584 0,0 6.627,-13.233 13.212,-18.146 l 1.651,-13.275 c 0,0 6.659,-16.494 52.966,-23.122 0,0 39.69,-9.898 56.152,28.129 0,0 1.684,24.762 -18.167,36.355 0,0 -79.369,11.55 -72.752,-1.651 0,0 -3.292,-8.29 24.826,-8.29 0,0 -13.202,-6.584 -8.279,-11.55 0,0 -21.501,-6.596 -24.783,4.966"
       style="fill:#fccd33;fill-opacity:1;fill-rule:nonzero;stroke:none"
       transform="matrix(0.35277776,0,0,-0.35277776,148.91247,131.75255)"
       clip-path="url(#clipPath79)" />
    <path
       id="path80"
       d="m 0,0 c 0,0 5.018,-19.894 11.635,-24.858 0,0 6.542,-8.258 -6.617,-8.258 0,0 1.598,-24.869 13.159,-24.869 l 38.102,-4.869 c 0,0 16.515,-16.59 4.955,-29.781 l -4.955,-19.872 c 0,0 -8.268,0 -14.927,21.47 H 14.927 c 0,0 -29.802,-9.92 -9.909,9.951 v 6.596 l -11.614,1.641 v 28.13 l 3.303,13.255 z"
       style="fill:#003976;fill-opacity:1;fill-rule:nonzero;stroke:none"
       transform="matrix(0.35277776,0,0,-0.35277776,130.80999,51.227003)"
       clip-path="url(#clipPath81)" />
    <path
       id="path82"
       d="m 0,0 c 0,0 13.159,-28.151 29.759,-29.792 h 13.212 c 0,0 18.199,-6.617 26.446,1.641 0,0 9.898,3.303 13.212,-6.617 0,0 11.582,-9.887 6.681,4.976 l 11.529,3.356 c 0,0 -14.854,9.888 -24.816,23.175 0,0 -67.755,-8.29 -76.023,3.261"
       style="fill:#003976;fill-opacity:1;fill-rule:nonzero;stroke:none"
       transform="matrix(0.35277776,0,0,-0.35277776,158.25064,74.57754)"
       clip-path="url(#clipPath83)" />
    <path
       id="path84"
       d="m 0,0 c -49.919,-11.806 -66.903,-20.331 -67.883,-20.799 l 4.912,-10.336 c 0.245,0.107 17.218,8.578 66.167,20.138 C 48.362,-0.363 124.556,12.679 231,14.224 l -0.171,11.464 C 123.043,24.101 45.816,10.857 0,0"
       style="fill:#003976;fill-opacity:1;fill-rule:nonzero;stroke:none"
       transform="matrix(0.35277776,0,0,-0.35277776,36.812147,142.44725)"
       clip-path="url(#clipPath85)" />
    <path
       id="path86"
       d="m 0,0 c 0.969,-0.437 17.261,-10.603 66.657,-22.153 45.316,-10.579 121.947,-23.526 229.732,-25.082 l 0.171,11.445 C 190.116,-34.246 114.498,-21.523 69.822,-11.125 21.427,0.148 5.146,10.26 4.933,10.366 Z"
       style="fill:#003976;fill-opacity:1;fill-rule:nonzero;stroke:none"
       transform="matrix(0.35277776,0,0,-0.35277776,13.687141,21.110858)"
       clip-path="url(#clipPath87)" />
    <path
       id="path88"
       d="m 0,0 10.186,-5.243 c 19.477,37.687 64.665,50.131 106.145,50.131 24.197,0 47.649,-5.593 67.83,-16.163 19.498,-10.218 25.55,-13.159 35.565,-30.1 l 9.857,5.806 C 218.501,23.217 210.862,27.66 189.488,38.869 167.656,50.302 142.361,56.333 116.331,56.333 70.951,56.333 21.427,41.458 0,0"
       style="fill:#003976;fill-opacity:1;fill-rule:nonzero;stroke:none"
       transform="matrix(0.35277776,0,0,-0.35277776,76.262755,201.77379)"
       clip-path="url(#clipPath89)" />
    <path
       id="path90"
       d="m 0,0 c -20.937,-11.711 -45.487,-17.911 -71.048,-17.911 -50.526,0 -93.124,17.516 -112.633,55.181 l -10.166,-5.263 c 21.46,-41.416 68.044,-61.373 122.799,-61.373 55.609,0 96.716,18.913 117.812,61.256 l -10.25,5.103 C 27.351,18.614 20.234,11.347 0,0"
       style="fill:#003976;fill-opacity:1;fill-rule:nonzero;stroke:none"
       transform="matrix(0.35277776,0,0,-0.35277776,142.36343,-16.400462)"
       clip-path="url(#clipPath91)" />
    <path
       id="path92"
       d="m 0,0 c -26.819,-56.622 -40.979,-122.277 -40.979,-189.893 0,-69.077 14.725,-135.948 42.641,-193.388 27.298,-56.227 65.624,-100.466 110.822,-127.934 l 5.956,9.781 c -89.885,54.638 -147.954,176.915 -147.954,311.541 0,65.922 13.766,129.905 39.839,185.001 25.326,53.457 60.861,96.024 102.778,123.162 l -6.234,9.6 C 63.163,99.591 26.189,55.395 0,0"
       style="fill:#003976;fill-opacity:1;fill-rule:nonzero;stroke:none"
       transform="matrix(0.35277776,0,0,-0.35277776,41.814217,19.555389)"
       clip-path="url(#clipPath93)" />
    <path
       id="path94"
       d="m 0,0 c 0,-114.317 25.806,-220.431 70.813,-291.105 l 9.664,6.169 C 59.519,-252.033 42.161,-209.329 30.303,-161.487 17.804,-111.1 11.475,-56.77 11.475,0 c 0,106.219 22.983,206.599 63.099,275.356 l -9.899,5.797 C 23.569,210.66 0,108.2 0,0"
       style="fill:#003976;fill-opacity:1;fill-rule:nonzero;stroke:none"
       transform="matrix(0.35277776,0,0,-0.35277776,71.652057,85.966934)"
       clip-path="url(#clipPath95)" />
    <path
       id="path96"
       d="m 158.877,529.894 h 359.669 v 11.465 H 158.877 Z"
       style="fill:#003976;fill-opacity:1;fill-rule:nonzero;stroke:none"
       transform="matrix(0.35277776,0,0,-0.35277776,-60.619042,276.63119)"
       clip-path="url(#clipPath97)" />
    <path
       id="path98"
       d="m 0,0 c -47.436,0 -93.487,-9.239 -136.768,-27.469 -41.874,-17.613 -79.454,-42.812 -111.706,-74.927 -32.296,-32.102 -57.623,-69.491 -75.321,-111.12 -18.337,-43.088 -27.628,-88.884 -27.628,-136.075 0,-47.202 9.291,-92.974 27.628,-136.095 17.698,-41.63 43.025,-79.018 75.321,-111.089 32.252,-32.125 69.832,-57.324 111.706,-74.948 43.281,-18.22 89.332,-27.468 136.768,-27.468 H 5.711 V 0 Z m -132.346,-661.142 c -40.478,17.027 -76.844,41.405 -108.063,72.465 -31.229,31.07 -55.736,67.211 -72.848,107.476 -17.73,41.693 -26.712,85.964 -26.712,131.61 0,45.635 8.982,89.928 26.712,131.589 17.112,40.266 41.619,76.45 72.848,107.498 31.219,31.06 67.585,55.449 108.063,72.465 40.17,16.92 82.757,25.806 126.624,26.52 v -676.133 c -43.867,0.704 -86.454,9.61 -126.624,26.51"
       style="fill:#003976;fill-opacity:1;fill-rule:nonzero;stroke:none"
       transform="matrix(0.35277776,0,0,-0.35277776,117.62422,-37.239257)"
       clip-path="url(#clipPath99)" />
  </g>
</svg>
